# Blender v3.2.2 OBJ File: ''
# www.blender.org
mtllib corner_object.mtl
o Cube_Cube.001
v 0.048238 0.000000 1.488001
v 9.721094 1.883604 1.472668
v 9.721094 0.629312 1.472668
v 0.383095 1.883604 -2.127332
v 1.365262 0.000000 0.336410
v 1.365262 1.999916 0.336410
v 0.383095 0.629312 -2.127332
v 1.365262 1.999916 0.336410
v 1.365262 0.000000 0.336410
v 0.383095 1.883604 1.472668
v 1.365262 1.999916 1.488001
v 1.365262 0.000000 1.488001
v 0.383095 0.629312 1.472668
v 9.721094 0.629312 -2.127332
v 9.721094 1.883604 -2.127332
v 0.383095 1.883604 -0.317430
v 0.383095 0.629312 -0.317430
v -0.950905 1.883604 -0.317430
v -0.950905 1.883604 -2.127332
v -0.950905 0.629312 1.472668
v -0.950905 1.883604 1.472668
v -0.950905 0.629312 -2.127332
v -0.950905 0.629312 -0.317430
vt 0.375000 0.000000
vt 0.625000 0.000000
vt 0.625000 0.250000
vt 0.375000 0.250000
vt 0.375000 0.250000
vt 0.625000 0.250000
vt 0.625000 0.500000
vt 0.375000 0.500000
vt 0.625000 0.500000
vt 0.375000 0.500000
vt 0.125000 0.625688
vt 0.375000 0.750000
vt 0.125000 0.750000
vt 0.125000 0.500000
vt 0.375000 0.500000
vt 0.375000 0.000000
vt 0.625000 0.000000
vt 0.625000 0.750000
vt 0.875000 0.625688
vt 0.875000 0.750000
vt 0.625000 0.500000
vt 0.875000 0.500000
vt 0.000000 0.000000
vt 0.000000 0.000000
vt 0.000000 0.000000
vt 0.000000 0.000000
vt 0.000000 0.000000
vt 0.000000 0.000000
vt 0.375000 0.624312
vt 0.625000 0.624312
vt 0.625000 0.750000
vt 0.375000 0.750000
vt 0.125000 0.625688
vt 0.125000 0.500000
vt 0.875000 0.500000
vt 0.875000 0.625688
vt 0.875000 0.750000
vt 0.125000 0.750000
vn 0.0000 0.0000 -1.0000
vn 0.0000 0.0000 1.0000
vn 0.0000 -1.0000 0.0000
vn 0.0000 1.0000 0.0000
vn 0.1883 0.0000 -0.9821
vn 0.1903 0.0000 0.9817
vn -1.0000 0.0000 0.0000
usemtl None
s off
f 7/1/1 4/2/1 15/3/1 14/4/1
f 3/5/2 2/6/2 10/7/2 13/8/2
f 13/8/2 10/7/2 21/9/2 20/10/2
f 17/11/3 3/12/3 13/13/3
f 7/14/3 14/15/3 17/11/3
f 4/2/1 7/1/1 22/16/1 19/17/1
f 2/18/4 16/19/4 10/20/4
f 16/19/4 15/21/4 4/22/4
f 16/23/5 2/24/5 3/25/5 17/26/5
f 15/27/6 16/23/6 17/26/6 14/28/6
f 23/29/7 18/30/7 19/31/7 22/32/7
f 20/10/7 21/9/7 18/30/7 23/29/7
f 7/14/3 17/11/3 23/33/3 22/34/3
f 16/19/4 4/22/4 19/35/4 18/36/4
f 10/20/4 16/19/4 18/36/4 21/37/4
f 17/11/3 13/13/3 20/38/3 23/33/3
l 6 8
l 9 5
